<svg width="64" height="64" viewBox="0 0 64 64" fill="none" xmlns="http://www.w3.org/2000/svg">
  <rect width="64" height="64" rx="14" fill="#16241B"/>
  <!-- The italic Cormorant Garamond "S" from public/logo/favicon.svg, as a path: browsers never load web fonts inside a favicon. -->
  <path fill="#F1ECE1" d="M30.51 43.38L30.51 43.38Q29.42 43.38 28.35 43.14Q27.28 42.90 26.10 42.30L26.10 42.30Q25.97 42.20 25.92 42.06Q25.87 41.91 25.90 41.69L25.90 41.69L26.54 37.37Q26.54 37.21 26.72 37.21Q26.90 37.21 26.93 37.37L26.93 37.37Q27.06 38.90 27.57 40.14Q28.08 41.37 29.01 42.07Q29.94 42.78 31.31 42.78L31.31 42.78Q32.27 42.78 33.10 42.41Q33.94 42.04 34.54 41.24Q35.15 40.44 35.34 39.19L35.34 39.19Q35.63 37.75 35.17 36.71Q34.70 35.67 33.81 34.89Q32.91 34.10 31.92 33.40L31.92 33.40Q30.93 32.66 30.05 31.90Q29.17 31.13 28.70 30.10Q28.24 29.08 28.50 27.61L28.50 27.61Q28.82 25.94 29.84 24.84Q30.86 23.74 32.29 23.19Q33.71 22.65 35.18 22.65L35.18 22.65Q36.02 22.65 36.91 22.82Q37.81 23 38.74 23.42L38.74 23.42Q39.15 23.64 39.12 23.96L39.12 23.96L38.67 27.70Q38.67 27.80 38.50 27.80Q38.32 27.80 38.32 27.70L38.32 27.70Q38.16 26.52 37.74 25.48Q37.33 24.44 36.56 23.82Q35.79 23.19 34.54 23.19L34.54 23.19Q33.39 23.19 32.64 23.70Q31.89 24.22 31.46 24.98Q31.02 25.75 30.86 26.55L30.86 26.55Q30.64 27.86 31.09 28.79Q31.54 29.72 32.40 30.44Q33.26 31.16 34.22 31.86L34.22 31.86Q35.28 32.60 36.22 33.42Q37.17 34.23 37.68 35.32Q38.19 36.41 37.94 37.94L37.94 37.94Q37.68 39.45 36.74 40.68Q35.79 41.91 34.24 42.65Q32.69 43.38 30.51 43.38Z"/>
</svg>
